<svg width="30" height="30" viewBox="0 0 30 30" fill="none" xmlns="http://www.w3.org/2000/svg">
<path fill-rule="evenodd" clip-rule="evenodd" d="M6.43655 23.063C7.07274 23.6992 8.10421 23.6992 8.7404 23.063L14.5 17.3034L20.2597 23.063C20.8959 23.6992 21.9273 23.6992 22.5635 23.063C23.1997 22.4269 23.1997 21.3954 22.5635 20.7592L16.8039 14.9996L22.5635 9.23997C23.1997 8.60378 23.1997 7.57231 22.5635 6.93613C21.9273 6.29994 20.8958 6.29994 20.2596 6.93613L14.5 12.6957L8.74045 6.93613C8.10426 6.29994 7.07279 6.29994 6.4366 6.93613C5.80041 7.57232 5.80041 8.60379 6.4366 9.23998L12.1962 14.9996L6.43655 20.7592C5.80036 21.3954 5.80036 22.4269 6.43655 23.063Z" fill="#83755F"/>
</svg>
