<svg width="21" height="17" viewBox="0 0 21 17" fill="none" xmlns="http://www.w3.org/2000/svg">
<path d="M18.3652 4.03131C19.1479 3.44423 19.8524 2.73973 20.4004 1.91781C19.6959 2.23092 18.874 2.46575 18.0521 2.54403C18.9131 2.03523 19.5393 1.25245 19.8524 0.273973C19.0697 0.74364 18.1695 1.09589 17.2693 1.29159C16.4865 0.469667 15.4297 0 14.2556 0C11.9855 0 10.146 1.83953 10.146 4.10959C10.146 4.4227 10.1851 4.73581 10.2634 5.04892C6.85832 4.85323 3.80548 3.20939 1.77025 0.74364C1.418 1.33072 1.22231 2.03523 1.22231 2.818C1.22231 4.22701 1.92681 5.47945 3.06184 6.22309C2.39648 6.18395 1.73111 6.0274 1.18317 5.71429V5.75343C1.18317 7.74951 2.59217 9.39335 4.47084 9.78474C4.15773 9.86301 3.76634 9.94129 3.41409 9.94129C3.14012 9.94129 2.90528 9.90215 2.63131 9.86301C3.14012 11.5069 4.66654 12.681 6.46693 12.7202C5.05793 13.816 3.29667 14.4814 1.37886 14.4814C1.02661 14.4814 0.713502 14.4423 0.400391 14.4031C2.20078 15.5773 4.35342 16.2427 6.70176 16.2427C14.2556 16.2427 18.3652 10.0196 18.3652 4.57926C18.3652 4.38356 18.3652 4.22701 18.3652 4.03131Z" fill="#242424"/>
</svg>
